<?xml version="1.0" encoding="iso-8859-1"?>
<!-- Generator: Adobe Illustrator 16.0.0, SVG Export Plug-In . SVG Version: 6.00 Build 0)  -->
<!DOCTYPE svg PUBLIC "-//W3C//DTD SVG 1.1//EN" "http://www.w3.org/Graphics/SVG/1.1/DTD/svg11.dtd">
<svg version="1.1" id="Capa_1" xmlns="http://www.w3.org/2000/svg" xmlns:xlink="http://www.w3.org/1999/xlink" x="0px" y="0px"
	 width="476.525px" height="476.525px" viewBox="0 0 476.525 476.525" style="enable-background:new 0 0 476.525 476.525;"
	 xml:space="preserve">
<g>
	<path d="M391.44,153.754c-0.512-12.473-1.961-13.945-5.662-17.652c-7.717-7.709-20.219-7.709-27.93,0
		c-4.312,4.315-6.211,10.123-5.699,15.759c0.008,0.366-0.02,13.918-0.061,29.8H316.55V78.318C316.55,35.062,281.478,0,238.225,0
		c-43.26,0-78.329,35.062-78.329,78.318v103.344h-35.458c-0.042-15.854-0.069-29.435-0.061-29.8
		c0.511-5.636-1.388-11.444-5.699-15.759c-7.713-7.709-20.215-7.709-27.931,0c-3.702,3.707-5.151,5.179-5.662,17.652
		c0,0,0.037,85.502,0.037,85.823c0,77.727,58.238,142.062,133.355,151.779v45.68h-54.632c-10.902,0-19.747,8.836-19.747,19.744
		c0,10.906,8.845,19.744,19.747,19.744h148.758c10.902,0,19.742-8.838,19.742-19.744c0-10.908-8.84-19.744-19.742-19.744h-54.635
		v-45.664c75.156-9.695,133.434-74.047,133.434-151.795C391.403,239.256,391.44,153.754,391.44,153.754z M265.866,46.067
		c10.908,0,19.748,8.838,19.748,19.747c0,10.908-8.84,19.747-19.748,19.747c-10.9,0-19.746-8.839-19.746-19.747
		S254.966,46.067,265.866,46.067z M265.866,103.331c10.908,0,19.748,8.842,19.748,19.747c0,10.908-8.84,19.747-19.748,19.747
		c-10.9,0-19.746-8.839-19.746-19.747C246.12,112.172,254.966,103.331,265.866,103.331z M265.866,160.593
		c10.908,0,19.748,8.842,19.748,19.748c0,10.908-8.84,19.747-19.748,19.747c-10.9,0-19.746-8.839-19.746-19.747
		C246.12,169.435,254.966,160.593,265.866,160.593z M210.579,46.067c10.908,0,19.747,8.838,19.747,19.747
		c0,10.908-8.839,19.747-19.747,19.747c-10.902,0-19.743-8.839-19.743-19.747S199.677,46.067,210.579,46.067z M210.579,103.331
		c10.908,0,19.747,8.842,19.747,19.747c0,10.908-8.839,19.747-19.747,19.747c-10.902,0-19.743-8.839-19.743-19.747
		C190.836,112.172,199.677,103.331,210.579,103.331z M210.579,160.593c10.908,0,19.747,8.842,19.747,19.748
		c0,10.908-8.839,19.747-19.747,19.747c-10.902,0-19.743-8.839-19.743-19.747C190.836,169.435,199.677,160.593,210.579,160.593z
		 M351.833,239.214c0,0.124,0,0.24,0,0.363c0,62.632-50.947,113.583-113.57,113.608c-62.622-0.025-113.57-50.977-113.57-113.608
		c0-0.123,0-0.239,0-0.363c-0.021-1.795-0.071-8.8-0.128-18.065h35.333v17.772c0,43.254,35.069,78.322,78.329,78.322
		c43.252,0,78.325-35.068,78.325-78.322v-17.772h35.412C351.905,230.414,351.854,237.419,351.833,239.214z"/>
</g>
<g>
</g>
<g>
</g>
<g>
</g>
<g>
</g>
<g>
</g>
<g>
</g>
<g>
</g>
<g>
</g>
<g>
</g>
<g>
</g>
<g>
</g>
<g>
</g>
<g>
</g>
<g>
</g>
<g>
</g>
</svg>
